<svg xmlns="http://www.w3.org/2000/svg" xmlns:xlink="http://www.w3.org/1999/xlink" xmlns:lucid="lucid" width="269" height="863.63"><g transform="translate(-427.58333333333337 -66.21811767838133)" lucid:page-tab-id="GzJ_C54b4Dl~"><path d="M0 0h1000v1000H0z" fill="#fff"/><path d="M478.08 776.7h128v29.33h-128z" fill="none"/><use xlink:href="#a" transform="matrix(1,0,0,1,478.08333333333337,776.6952655835807) translate(17.549999999999997 18.6)"/><use xlink:href="#b" transform="matrix(1,0,0,1,478.08333333333337,776.6952655835807) translate(67.5 18.6)"/><path d="M462.08 372.22a5 5 0 0 1 5-5h150a5 5 0 0 1 5 5v110a5 5 0 0 1-5 5h-150a5 5 0 0 1-5-5z" stroke="#000" stroke-width="2" fill="#b2b2b2"/><use xlink:href="#c" transform="matrix(1,0,0,1,470.08333333333337,375.21811767838136) translate(47 44.8)"/><use xlink:href="#d" transform="matrix(1,0,0,1,470.08333333333337,375.21811767838136) translate(38.525 66.4)"/><path d="M462.08 92.22a5 5 0 0 1 5-5h150a5 5 0 0 1 5 5v110a5 5 0 0 1-5 5h-150a5 5 0 0 1-5-5z" stroke="#000" stroke-width="2" fill="#fff"/><use xlink:href="#e" transform="matrix(1,0,0,1,470.08333333333337,95.21811767838133) translate(0.125 44.8)"/><use xlink:href="#f" transform="matrix(1,0,0,1,470.08333333333337,95.21811767838133) translate(26.9 66.4)"/><use xlink:href="#g" transform="matrix(1,0,0,1,470.08333333333337,95.21811767838133) translate(72.19999999999999 66.4)"/><path d="M462.08 232.22a5 5 0 0 1 5-5h150a5 5 0 0 1 5 5v110a5 5 0 0 1-5 5h-150a5 5 0 0 1-5-5z" stroke="#000" stroke-width="2" fill="#666"/><use xlink:href="#h" transform="matrix(1,0,0,1,470.08333333333337,235.21811767838136) translate(16.099999999999994 44.8)"/><use xlink:href="#i" transform="matrix(1,0,0,1,470.08333333333337,235.21811767838136) translate(66 44.8)"/><use xlink:href="#j" transform="matrix(1,0,0,1,470.08333333333337,235.21811767838136) translate(52.55 66.4)"/><path d="M482.13 887.82h-50.55v-1.95h50.55zm152.95 0h-33.05v-1.95h33.05z" stroke="#000" stroke-width=".05"/><path d="M431.6 887.82h-1.02v-1.95h1.03z" stroke="#000" stroke-width=".05"/><path d="M650.35 886.85l-14.27 4.63v-9.27z" fill="#fff"/><path d="M653.5 886.85l-18.4 5.98v-11.96zm-16.44 3.3l10.13-3.3-10.14-3.3z" stroke="#000" stroke-width=".05"/><use xlink:href="#k" transform="matrix(1,0,0,1,542.0833333333334,876.4485489882853) translate(0 13.866666666666669)"/><use xlink:href="#l" transform="matrix(1,0,0,1,482.1333333333334,865.2485489882853) translate(0 14.4)"/><use xlink:href="#m" transform="matrix(1,0,0,1,482.1333333333334,865.2485489882853) translate(34 14.4)"/><use xlink:href="#n" transform="matrix(1,0,0,1,482.1333333333334,865.2485489882853) translate(79.95 14.4)"/><use xlink:href="#o" transform="matrix(1,0,0,1,482.1333333333334,865.2485489882853) translate(99.95 14.4)"/><use xlink:href="#p" transform="matrix(1,0,0,1,482.1333333333334,865.2485489882853) translate(0 36)"/><use xlink:href="#q" transform="matrix(1,0,0,1,482.1333333333334,865.2485489882853) translate(34 36)"/><use xlink:href="#r" transform="matrix(1,0,0,1,482.1333333333334,865.2485489882853) translate(104.9 36)"/><path d="M509.13 833.3h-77.55v-1.95h77.55zm142.63 0h-76.73v-1.95h76.74z" stroke="#000" stroke-width=".05"/><path d="M431.6 833.3h-1.02v-1.95h1.03zM653.53 832.32l-18.63 11.02-1-1.68 15.8-9.34-15.8-9.34 1-1.68z" stroke="#000" stroke-width=".05"/><g><use xlink:href="#k" transform="matrix(1,0,0,1,542.0833333333334,821.9235489882855) translate(0 13.866666666666669)"/></g><g><use xlink:href="#s" transform="matrix(1,0,0,1,509.1333333333334,821.5235489882855) translate(0 14.4)"/></g><path d="M462.08 638.74a8.7 8.7 0 0 1 4.33-7.52l71.36-41.5a8.6 8.6 0 0 1 8.65 0l71.36 41.5a8.7 8.7 0 0 1 4.32 7.52v63.48a5 5 0 0 1-5 5h-150a5 5 0 0 1-5-5z" stroke="#000" stroke-width="2" fill="#fff"/><g><use xlink:href="#t" transform="matrix(1,0,0,1,462.08333333333337,587.2181176783813) translate(56.5 63.6)"/></g><path d="M522.08 732.36a5 5 0 0 1 5-5h30a5 5 0 0 1 5 5v28.67a5 5 0 0 1-5 5h-30a5 5 0 0 1-5-5zM462.08 512.22a5 5 0 0 1 5-5h150a5 5 0 0 1 5 5v50a5 5 0 0 1-5 5h-150a5 5 0 0 1-5-5z" stroke="#000" stroke-width="2" fill="#fff"/><g><use xlink:href="#u" transform="matrix(1,0,0,1,470.08333333333337,515.2181176783813) translate(36.025 25.6)"/></g><defs><path d="M160-131c35 5 61 23 61 61C221 17 115-2 30 0v-248c76 3 177-17 177 60 0 33-19 50-47 57zm-97-11c50-1 110 9 110-42 0-47-63-36-110-37v79zm0 115c55-2 124 14 124-45 0-56-70-42-124-44v89" id="v"/><path d="M24 0v-261h32V0H24" id="w"/><path d="M141-36C126-15 110 5 73 4 37 3 15-17 15-53c-1-64 63-63 125-63 3-35-9-54-41-54-24 1-41 7-42 31l-33-3c5-37 33-52 76-52 45 0 72 20 72 64v82c-1 20 7 32 28 27v20c-31 9-61-2-59-35zM48-53c0 20 12 33 32 33 41-3 63-29 60-74-43 2-92-5-92 41" id="x"/><path d="M117-194c89-4 53 116 60 194h-32v-121c0-31-8-49-39-48C34-167 62-67 57 0H25l-1-190h30c1 10-1 24 2 32 11-22 29-35 61-36" id="y"/><path d="M143 0L79-87 56-68V0H24v-261h32v163l83-92h37l-77 82L181 0h-38" id="z"/><g id="a"><use transform="matrix(0.05,0,0,0.05,0,0)" xlink:href="#v"/><use transform="matrix(0.05,0,0,0.05,12,0)" xlink:href="#w"/><use transform="matrix(0.05,0,0,0.05,15.949999999999998,0)" xlink:href="#x"/><use transform="matrix(0.05,0,0,0.05,25.950000000000003,0)" xlink:href="#y"/><use transform="matrix(0.05,0,0,0.05,35.95,0)" xlink:href="#z"/></g><path d="M190 0L58-211 59 0H30v-248h39L202-35l-2-213h31V0h-41" id="A"/><path d="M100-194c62-1 85 37 85 99 1 63-27 99-86 99S16-35 15-95c0-66 28-99 85-99zM99-20c44 1 53-31 53-75 0-43-8-75-51-75s-53 32-53 75 10 74 51 75" id="B"/><path d="M85-194c31 0 48 13 60 33l-1-100h32l1 261h-30c-2-10 0-23-3-31C134-8 116 4 85 4 32 4 16-35 15-94c0-66 23-100 70-100zm9 24c-40 0-46 34-46 75 0 40 6 74 45 74 42 0 51-32 51-76 0-42-9-74-50-73" id="C"/><path d="M100-194c63 0 86 42 84 106H49c0 40 14 67 53 68 26 1 43-12 49-29l28 8c-11 28-37 45-77 45C44 4 14-33 15-96c1-61 26-98 85-98zm52 81c6-60-76-77-97-28-3 7-6 17-6 28h103" id="D"/><g id="b"><use transform="matrix(0.05,0,0,0.05,0,0)" xlink:href="#A"/><use transform="matrix(0.05,0,0,0.05,12.950000000000001,0)" xlink:href="#B"/><use transform="matrix(0.05,0,0,0.05,22.950000000000003,0)" xlink:href="#C"/><use transform="matrix(0.05,0,0,0.05,32.95,0)" xlink:href="#D"/></g><path d="M185-189c-5-48-123-54-124 2 14 75 158 14 163 119 3 78-121 87-175 55-17-10-28-26-33-46l33-7c5 56 141 63 141-1 0-78-155-14-162-118-5-82 145-84 179-34 5 7 8 16 11 25" id="E"/><path d="M194 0L95-120 63-95V0H30v-248h33v124l119-124h40L117-140 236 0h-42" id="F"/><path d="M140-251c81 0 123 46 123 126C263-46 219 4 140 4 59 4 17-45 17-125s42-126 123-126zm0 227c63 0 89-41 89-101s-29-99-89-99c-61 0-89 39-89 99S79-25 140-24" id="G"/><g id="c"><use transform="matrix(0.05,0,0,0.05,0,0)" xlink:href="#E"/><use transform="matrix(0.05,0,0,0.05,12,0)" xlink:href="#F"/><use transform="matrix(0.05,0,0,0.05,24,0)" xlink:href="#G"/><use transform="matrix(0.05,0,0,0.05,38,0)" xlink:href="#E"/></g><path d="M212-179c-10-28-35-45-73-45-59 0-87 40-87 99 0 60 29 101 89 101 43 0 62-24 78-52l27 14C228-24 195 4 139 4 59 4 22-46 18-125c-6-104 99-153 187-111 19 9 31 26 39 46" id="H"/><path d="M96-169c-40 0-48 33-48 73s9 75 48 75c24 0 41-14 43-38l32 2c-6 37-31 61-74 61-59 0-76-41-82-99-10-93 101-131 147-64 4 7 5 14 7 22l-32 3c-4-21-16-35-41-35" id="I"/><path d="M115-194c55 1 70 41 70 98S169 2 115 4C84 4 66-9 55-30l1 105H24l-1-265h31l2 30c10-21 28-34 59-34zm-8 174c40 0 45-34 45-75s-6-73-45-74c-42 0-51 32-51 76 0 43 10 73 51 73" id="J"/><path d="M59-47c-2 24 18 29 38 22v24C64 9 27 4 27-40v-127H5v-23h24l9-43h21v43h35v23H59v120" id="K"/><g id="d"><use transform="matrix(0.05,0,0,0.05,0,0)" xlink:href="#H"/><use transform="matrix(0.05,0,0,0.05,12.950000000000001,0)" xlink:href="#B"/><use transform="matrix(0.05,0,0,0.05,22.950000000000003,0)" xlink:href="#y"/><use transform="matrix(0.05,0,0,0.05,32.95,0)" xlink:href="#I"/><use transform="matrix(0.05,0,0,0.05,41.95,0)" xlink:href="#D"/><use transform="matrix(0.05,0,0,0.05,51.95,0)" xlink:href="#J"/><use transform="matrix(0.05,0,0,0.05,61.95,0)" xlink:href="#K"/></g><path d="M30 0v-248h187v28H63v79h144v27H63v87h162V0H30" id="L"/><path d="M141 0L90-78 38 0H4l68-98-65-92h35l48 74 47-74h35l-64 92 68 98h-35" id="M"/><path d="M114-163C36-179 61-72 57 0H25l-1-190h30c1 12-1 29 2 39 6-27 23-49 58-41v29" id="N"/><path d="M179-190L93 31C79 59 56 82 12 73V49c39 6 53-20 64-50L1-190h34L92-34l54-156h33" id="O"/><path d="M16-82v-28h88v28H16" id="P"/><path d="M101-234c-31-9-42 10-38 44h38v23H63V0H32v-167H5v-23h27c-7-52 17-82 69-68v24" id="Q"/><path d="M24-231v-30h32v30H24zM24 0v-190h32V0H24" id="R"/><g id="e"><use transform="matrix(0.05,0,0,0.05,0,0)" xlink:href="#L"/><use transform="matrix(0.05,0,0,0.05,12,0)" xlink:href="#M"/><use transform="matrix(0.05,0,0,0.05,21,0)" xlink:href="#K"/><use transform="matrix(0.05,0,0,0.05,26,0)" xlink:href="#D"/><use transform="matrix(0.05,0,0,0.05,36,0)" xlink:href="#N"/><use transform="matrix(0.05,0,0,0.05,41.95,0)" xlink:href="#y"/><use transform="matrix(0.05,0,0,0.05,51.95,0)" xlink:href="#x"/><use transform="matrix(0.05,0,0,0.05,61.95,0)" xlink:href="#w"/><use transform="matrix(0.05,0,0,0.05,65.9,0)" xlink:href="#w"/><use transform="matrix(0.05,0,0,0.05,69.85000000000001,0)" xlink:href="#O"/><use transform="matrix(0.05,0,0,0.05,78.85000000000001,0)" xlink:href="#P"/><use transform="matrix(0.05,0,0,0.05,84.80000000000001,0)" xlink:href="#C"/><use transform="matrix(0.05,0,0,0.05,94.80000000000001,0)" xlink:href="#D"/><use transform="matrix(0.05,0,0,0.05,104.80000000000001,0)" xlink:href="#Q"/><use transform="matrix(0.05,0,0,0.05,109.80000000000001,0)" xlink:href="#R"/><use transform="matrix(0.05,0,0,0.05,113.75,0)" xlink:href="#y"/><use transform="matrix(0.05,0,0,0.05,123.75,0)" xlink:href="#D"/><use transform="matrix(0.05,0,0,0.05,133.75,0)" xlink:href="#C"/></g><path d="M266 0h-40l-56-210L115 0H75L2-248h35L96-30l15-64 43-154h32l59 218 59-218h35" id="S"/><path d="M30 0v-248h33v221h125V0H30" id="T"/><g id="f"><use transform="matrix(0.05,0,0,0.05,0,0)" xlink:href="#G"/><use transform="matrix(0.05,0,0,0.05,14,0)" xlink:href="#S"/><use transform="matrix(0.05,0,0,0.05,30.950000000000003,0)" xlink:href="#T"/></g><path d="M135-143c-3-34-86-38-87 0 15 53 115 12 119 90S17 21 10-45l28-5c4 36 97 45 98 0-10-56-113-15-118-90-4-57 82-63 122-42 12 7 21 19 24 35" id="U"/><g id="g"><use transform="matrix(0.05,0,0,0.05,0,0)" xlink:href="#H"/><use transform="matrix(0.05,0,0,0.05,12.950000000000001,0)" xlink:href="#w"/><use transform="matrix(0.05,0,0,0.05,16.900000000000002,0)" xlink:href="#x"/><use transform="matrix(0.05,0,0,0.05,26.900000000000002,0)" xlink:href="#U"/><use transform="matrix(0.05,0,0,0.05,35.900000000000006,0)" xlink:href="#U"/></g><path fill="#fff" d="M212-179c-10-28-35-45-73-45-59 0-87 40-87 99 0 60 29 101 89 101 43 0 62-24 78-52l27 14C228-24 195 4 139 4 59 4 22-46 18-125c-6-104 99-153 187-111 19 9 31 26 39 46" id="V"/><path fill="#fff" d="M24 0v-261h32V0H24" id="W"/><path fill="#fff" d="M141-36C126-15 110 5 73 4 37 3 15-17 15-53c-1-64 63-63 125-63 3-35-9-54-41-54-24 1-41 7-42 31l-33-3c5-37 33-52 76-52 45 0 72 20 72 64v82c-1 20 7 32 28 27v20c-31 9-61-2-59-35zM48-53c0 20 12 33 32 33 41-3 63-29 60-74-43 2-92-5-92 41" id="X"/><path fill="#fff" d="M135-143c-3-34-86-38-87 0 15 53 115 12 119 90S17 21 10-45l28-5c4 36 97 45 98 0-10-56-113-15-118-90-4-57 82-63 122-42 12 7 21 19 24 35" id="Y"/><g id="h"><use transform="matrix(0.05,0,0,0.05,0,0)" xlink:href="#V"/><use transform="matrix(0.05,0,0,0.05,12.950000000000001,0)" xlink:href="#W"/><use transform="matrix(0.05,0,0,0.05,16.900000000000002,0)" xlink:href="#X"/><use transform="matrix(0.05,0,0,0.05,26.900000000000002,0)" xlink:href="#Y"/><use transform="matrix(0.05,0,0,0.05,35.900000000000006,0)" xlink:href="#Y"/></g><path fill="#fff" d="M30-248c118-7 216 8 213 122C240-48 200 0 122 0H30v-248zM63-27c89 8 146-16 146-99s-60-101-146-95v194" id="Z"/><path fill="#fff" d="M100-194c63 0 86 42 84 106H49c0 40 14 67 53 68 26 1 43-12 49-29l28 8c-11 28-37 45-77 45C44 4 14-33 15-96c1-61 26-98 85-98zm52 81c6-60-76-77-97-28-3 7-6 17-6 28h103" id="aa"/><path fill="#fff" d="M101-234c-31-9-42 10-38 44h38v23H63V0H32v-167H5v-23h27c-7-52 17-82 69-68v24" id="ab"/><path fill="#fff" d="M24-231v-30h32v30H24zM24 0v-190h32V0H24" id="ac"/><path fill="#fff" d="M117-194c89-4 53 116 60 194h-32v-121c0-31-8-49-39-48C34-167 62-67 57 0H25l-1-190h30c1 10-1 24 2 32 11-22 29-35 61-36" id="ad"/><path fill="#fff" d="M85-194c31 0 48 13 60 33l-1-100h32l1 261h-30c-2-10 0-23-3-31C134-8 116 4 85 4 32 4 16-35 15-94c0-66 23-100 70-100zm9 24c-40 0-46 34-46 75 0 40 6 74 45 74 42 0 51-32 51-76 0-42-9-74-50-73" id="ae"/><g id="i"><use transform="matrix(0.05,0,0,0.05,0,0)" xlink:href="#Z"/><use transform="matrix(0.05,0,0,0.05,12.950000000000001,0)" xlink:href="#aa"/><use transform="matrix(0.05,0,0,0.05,22.950000000000003,0)" xlink:href="#ab"/><use transform="matrix(0.05,0,0,0.05,27.950000000000003,0)" xlink:href="#ac"/><use transform="matrix(0.05,0,0,0.05,31.900000000000002,0)" xlink:href="#ad"/><use transform="matrix(0.05,0,0,0.05,41.900000000000006,0)" xlink:href="#aa"/><use transform="matrix(0.05,0,0,0.05,51.900000000000006,0)" xlink:href="#ae"/></g><path fill="#fff" d="M197 0v-115H63V0H30v-248h33v105h134v-105h34V0h-34" id="af"/><path fill="#fff" d="M114-163C36-179 61-72 57 0H25l-1-190h30c1 12-1 29 2 39 6-27 23-49 58-41v29" id="ag"/><g id="j"><use transform="matrix(0.05,0,0,0.05,0,0)" xlink:href="#af"/><use transform="matrix(0.05,0,0,0.05,12.950000000000001,0)" xlink:href="#aa"/><use transform="matrix(0.05,0,0,0.05,22.950000000000003,0)" xlink:href="#ag"/><use transform="matrix(0.05,0,0,0.05,28.900000000000002,0)" xlink:href="#aa"/></g><path d="M84 4C-5 8 30-112 23-190h32v120c0 31 7 50 39 49 72-2 45-101 50-169h31l1 190h-30c-1-10 1-25-2-33-11 22-28 36-60 37" id="ah"/><path d="M115-194c53 0 69 39 70 98 0 66-23 100-70 100C84 3 66-7 56-30L54 0H23l1-261h32v101c10-23 28-34 59-34zm-8 174c40 0 45-34 45-75 0-40-5-75-45-74-42 0-51 32-51 76 0 43 10 73 51 73" id="ai"/><g id="l"><use transform="matrix(0.05,0,0,0.05,0,0)" xlink:href="#U"/><use transform="matrix(0.05,0,0,0.05,9,0)" xlink:href="#ah"/><use transform="matrix(0.05,0,0,0.05,19,0)" xlink:href="#ai"/></g><g id="m"><use transform="matrix(0.05,0,0,0.05,0,0)" xlink:href="#I"/><use transform="matrix(0.05,0,0,0.05,9,0)" xlink:href="#w"/><use transform="matrix(0.05,0,0,0.05,12.949999999999998,0)" xlink:href="#x"/><use transform="matrix(0.05,0,0,0.05,22.95,0)" xlink:href="#U"/><use transform="matrix(0.05,0,0,0.05,31.950000000000003,0)" xlink:href="#U"/></g><g id="n"><use transform="matrix(0.05,0,0,0.05,0,0)" xlink:href="#B"/><use transform="matrix(0.05,0,0,0.05,10,0)" xlink:href="#Q"/></g><path d="M0 4l72-265h28L28 4H0" id="aj"/><use transform="matrix(0.05,0,0,0.05,0,0)" xlink:href="#aj" id="o"/><g id="p"><use transform="matrix(0.05,0,0,0.05,0,0)" xlink:href="#U"/><use transform="matrix(0.05,0,0,0.05,9,0)" xlink:href="#ah"/><use transform="matrix(0.05,0,0,0.05,19,0)" xlink:href="#ai"/></g><g id="q"><use transform="matrix(0.05,0,0,0.05,0,0)" xlink:href="#J"/><use transform="matrix(0.05,0,0,0.05,10,0)" xlink:href="#N"/><use transform="matrix(0.05,0,0,0.05,15.949999999999998,0)" xlink:href="#B"/><use transform="matrix(0.05,0,0,0.05,25.950000000000003,0)" xlink:href="#J"/><use transform="matrix(0.05,0,0,0.05,35.95,0)" xlink:href="#D"/><use transform="matrix(0.05,0,0,0.05,45.95,0)" xlink:href="#N"/><use transform="matrix(0.05,0,0,0.05,51.900000000000006,0)" xlink:href="#K"/><use transform="matrix(0.05,0,0,0.05,56.900000000000006,0)" xlink:href="#O"/></g><g id="r"><use transform="matrix(0.05,0,0,0.05,0,0)" xlink:href="#B"/><use transform="matrix(0.05,0,0,0.05,10,0)" xlink:href="#Q"/></g><g id="s"><use transform="matrix(0.05,0,0,0.05,0,0)" xlink:href="#J"/><use transform="matrix(0.05,0,0,0.05,10,0)" xlink:href="#N"/><use transform="matrix(0.05,0,0,0.05,15.949999999999998,0)" xlink:href="#B"/><use transform="matrix(0.05,0,0,0.05,25.950000000000003,0)" xlink:href="#J"/><use transform="matrix(0.05,0,0,0.05,35.95,0)" xlink:href="#D"/><use transform="matrix(0.05,0,0,0.05,45.95,0)" xlink:href="#N"/><use transform="matrix(0.05,0,0,0.05,51.900000000000006,0)" xlink:href="#K"/><use transform="matrix(0.05,0,0,0.05,56.900000000000006,0)" xlink:href="#O"/></g><path d="M205 0l-28-72H64L36 0H1l101-248h38L239 0h-34zm-38-99l-47-123c-12 45-31 82-46 123h93" id="ak"/><path d="M177-190C167-65 218 103 67 71c-23-6-38-20-44-43l32-5c15 47 100 32 89-28v-30C133-14 115 1 83 1 29 1 15-40 15-95c0-56 16-97 71-98 29-1 48 16 59 35 1-10 0-23 2-32h30zM94-22c36 0 50-32 50-73 0-42-14-75-50-75-39 0-46 34-46 75s6 73 46 73" id="al"/><g id="t"><use transform="matrix(0.05,0,0,0.05,0,0)" xlink:href="#ak"/><use transform="matrix(0.05,0,0,0.05,12,0)" xlink:href="#al"/><use transform="matrix(0.05,0,0,0.05,22,0)" xlink:href="#D"/><use transform="matrix(0.05,0,0,0.05,32,0)" xlink:href="#y"/><use transform="matrix(0.05,0,0,0.05,42,0)" xlink:href="#K"/></g><path d="M30-248c118-7 216 8 213 122C240-48 200 0 122 0H30v-248zM63-27c89 8 146-16 146-99s-60-101-146-95v194" id="am"/><g id="u"><use transform="matrix(0.05,0,0,0.05,0,0)" xlink:href="#am"/><use transform="matrix(0.05,0,0,0.05,12.950000000000001,0)" xlink:href="#x"/><use transform="matrix(0.05,0,0,0.05,22.950000000000003,0)" xlink:href="#K"/><use transform="matrix(0.05,0,0,0.05,27.950000000000003,0)" xlink:href="#x"/><use transform="matrix(0.05,0,0,0.05,37.95,0)" xlink:href="#K"/><use transform="matrix(0.05,0,0,0.05,42.95,0)" xlink:href="#O"/><use transform="matrix(0.05,0,0,0.05,51.95,0)" xlink:href="#J"/><use transform="matrix(0.05,0,0,0.05,61.95,0)" xlink:href="#D"/></g></defs></g></svg>